<?xml version="1.0" encoding="utf-8"?>
<!-- Generator: Adobe Illustrator 24.1.2, SVG Export Plug-In . SVG Version: 6.00 Build 0)  -->
<svg version="1.1" id="Warstwa_1" xmlns="http://www.w3.org/2000/svg" xmlns:xlink="http://www.w3.org/1999/xlink" x="0px" y="0px"
	 viewBox="0 0 430 430" style="enable-background:new 0 0 430 430;" xml:space="preserve">
<style type="text/css">
	.st0{fill:#121331;}
	.st1{fill:#08a88a;}
	.st2{fill-opacity:0;}
	.st3{fill:none;}
</style>
<g>
	<path class="st1" d="M216.59,337.78c-17.52,0-31.77-14.8-31.77-32.99c0-18.19,14.25-32.99,31.77-32.99s31.77,14.8,31.77,32.99
		C248.36,322.98,234.11,337.78,216.59,337.78z M216.59,284.4c-10.57,0-19.17,9.15-19.17,20.39s8.6,20.39,19.17,20.39
		s19.17-9.15,19.17-20.39S227.16,284.4,216.59,284.4z"/>
	<path class="st1" d="M145.56,337.78H131.1c-3.48,0-6.3-2.82-6.3-6.3V278.1c0-3.48,2.82-6.3,6.3-6.3h14.46
		c18.19,0,32.99,14.8,32.99,32.99C178.54,322.98,163.75,337.78,145.56,337.78z M137.4,325.18h8.16c11.24,0,20.39-9.15,20.39-20.39
		s-9.15-20.39-20.39-20.39h-8.16V325.18z"/>
	<path class="st1" d="M287.56,337.78c-18.19,0-32.99-14.8-32.99-32.99c0-18.19,14.8-32.99,32.99-32.99c7.86,0,15.48,2.81,21.45,7.92
		c2.64,2.26,2.95,6.24,0.69,8.88c-2.26,2.64-6.24,2.95-8.88,0.69c-3.68-3.16-8.39-4.89-13.25-4.89c-11.24,0-20.39,9.15-20.39,20.39
		s9.15,20.39,20.39,20.39c4.86,0,9.56-1.74,13.25-4.89c2.64-2.26,6.62-1.96,8.88,0.69s1.96,6.62-0.69,8.88
		C303.04,334.96,295.43,337.78,287.56,337.78z"/>
	<path class="st0" d="M322.17,382.36H107.83c-3.58,0-6.47-2.9-6.47-6.47V54.12c0-3.58,2.9-6.48,6.47-6.48h155
		c1.72,0,3.36,0.68,4.58,1.9l59.34,59.34c1.21,1.21,1.9,2.86,1.9,4.58v262.42C328.65,379.46,325.75,382.36,322.17,382.36z
		 M114.3,369.41h201.4V116.15l-55.55-55.55H114.3V369.41z"/>
	<path class="st0" d="M311.58,117.81h-48.35c-3.58,0-6.47-2.9-6.47-6.48V55.95c0-3.58,2.9-6.48,6.47-6.48s6.47,2.9,6.47,6.48v48.91
		h41.88c3.58,0,6.47,2.9,6.47,6.48S315.15,117.81,311.58,117.81z"/>
</g>
</svg>
