<?xml version="1.0" encoding="utf-8"?>
<!-- Generator: Adobe Illustrator 26.1.0, SVG Export Plug-In . SVG Version: 6.00 Build 0)  -->
<svg version="1.1" id="Warstwa_3" xmlns="http://www.w3.org/2000/svg" x="0px" y="0px"
     viewBox="0 0 430 430" style="enable-background:new 0 0 430 430;" xml:space="preserve">
<style type="text/css">
	.st0{fill:#121331;}
	.st1{fill:#08a88a;}
</style>
<path class="st0" d="M376,382.36H54c-3.42,0-6.2-2.77-6.2-6.2V92.36c0-3.42,2.77-6.2,6.2-6.2h322c3.42,0,6.2,2.78,6.2,6.2v283.8
	C382.2,379.58,379.42,382.36,376,382.36z M60.2,369.96h309.6V98.56H60.2V369.96z"/>
<path class="st0" d="M129.9,98.55H86.2c-3.42,0-6.2-2.77-6.2-6.2V53.84c0-3.42,2.78-6.2,6.2-6.2h43.7c3.42,0,6.2,2.77,6.2,6.2v38.52
	C136.1,95.78,133.32,98.55,129.9,98.55z M92.4,86.16h31.3V60.04H92.4V86.16z"/>
<path class="st0" d="M343.8,98.55h-43.7c-3.42,0-6.2-2.77-6.2-6.2V53.84c0-3.42,2.78-6.2,6.2-6.2h43.7c3.42,0,6.2,2.77,6.2,6.2
	v38.52C350,95.78,347.22,98.55,343.8,98.55z M306.3,86.16h31.3V60.04h-31.3V86.16z"/>
<path class="st0" d="M376,145.69H54c-3.42,0-6.2-2.77-6.2-6.2s2.77-6.2,6.2-6.2h322c3.42,0,6.2,2.77,6.2,6.2
	S379.42,145.69,376,145.69z"/>
<path class="st1" d="M224.02,341.97c-3.31,0-6-2.69-6-6V191.08l-41.48,39.35c-2.4,2.28-6.2,2.18-8.48-0.22
	c-2.28-2.4-2.18-6.2,0.22-8.48l51.61-48.96c1.74-1.65,4.29-2.11,6.5-1.16c2.2,0.95,3.63,3.11,3.63,5.51v158.85
	C230.02,339.28,227.33,341.97,224.02,341.97z"/>
</svg>
