<?xml version="1.0" encoding="utf-8"?>
<!-- Generator: Adobe Illustrator 24.1.2, SVG Export Plug-In . SVG Version: 6.00 Build 0)  -->
<svg version="1.1" id="Warstwa_3" xmlns="http://www.w3.org/2000/svg" xmlns:xlink="http://www.w3.org/1999/xlink" x="0px" y="0px"
	 viewBox="0 0 430 430" style="enable-background:new 0 0 430 430;" xml:space="preserve">
<style type="text/css">
	.st0{fill:#121331;}
	.st1{fill:#08a88a;}
	.st2{fill:#08a88a;}
	.st3{fill:none;stroke:#08a88a;stroke-width:12;stroke-linecap:round;stroke-linejoin:round;stroke-miterlimit:10;}
</style>
<g>
	<path class="st0" d="M281.32,355.06H54.71c-3.31,0-6-2.69-6-6v-93.64c0-54.94,44.7-99.63,99.64-99.63h124.76c3.31,0,6,2.69,6,6
		s-2.69,6-6,6H148.34c-48.32,0-87.64,39.31-87.64,87.63v87.64h220.61c23.4,0,45.41-9.12,61.97-25.67
		c16.55-16.55,25.66-38.56,25.66-61.97c0-15.57-4.13-30.86-11.96-44.22c-1.67-2.86-0.71-6.54,2.15-8.21
		c2.86-1.68,6.54-0.71,8.21,2.15c8.9,15.2,13.6,32.59,13.6,50.28c0,26.62-10.36,51.64-29.18,70.45
		C332.95,344.69,307.93,355.06,281.32,355.06z"/>
	<g>
		<path class="st0" d="M257.16,250.21h-147.6c-3.31,0-6-2.69-6-6s2.69-6,6-6h147.6c3.31,0,6,2.69,6,6S260.47,250.21,257.16,250.21z"
			/>
		<path class="st0" d="M188.62,290.63h-79.06c-3.31,0-6-2.69-6-6s2.69-6,6-6h79.06c3.31,0,6,2.69,6,6S191.93,290.63,188.62,290.63z"
			/>
		<path class="st0" d="M311.68,290.63h-90.44c-3.31,0-6-2.69-6-6s2.69-6,6-6h90.44c3.31,0,6,2.69,6,6S315,290.63,311.68,290.63z"/>
	</g>
	<path class="st1" d="M380.24,204.76l-23.98-34.87v-33.94c0-22.54-16.83-41.22-38.58-44.16V80.94c0-3.31-2.69-6-6-6s-6,2.69-6,6
		V91.8c-21.75,2.94-38.58,21.62-38.58,44.16v33.94l-23.98,34.87c-1.26,1.84-1.4,4.22-0.37,6.19s3.08,3.21,5.31,3.21h40.84
		c2.39,11.85,11.69,20.71,22.77,20.71s20.38-8.86,22.77-20.71h40.84c2.23,0,4.27-1.23,5.31-3.21S381.5,206.6,380.24,204.76z
		 M311.68,222.87c-4.62,0-8.6-3.58-10.38-8.71h20.75C320.28,219.29,316.3,222.87,311.68,222.87z M259.48,202.16l18.57-27
		c0.69-1,1.06-2.19,1.06-3.4v-35.8c0-17.96,14.61-32.58,32.58-32.58s32.58,14.61,32.58,32.58v35.8c0,1.21,0.37,2.4,1.06,3.4
		l18.57,27H259.48z"/>
</g>
</svg>
