<?xml version="1.0" encoding="utf-8"?>
<!-- Generator: Adobe Illustrator 26.0.2, SVG Export Plug-In . SVG Version: 6.00 Build 0)  -->
<svg version="1.1" id="Warstwa_1" xmlns="http://www.w3.org/2000/svg" xmlns:xlink="http://www.w3.org/1999/xlink" x="0px" y="0px"
	 viewBox="0 0 430 430" style="enable-background:new 0 0 430 430;" xml:space="preserve">
<style type="text/css">
	.st0{fill:#3a3347;}
	.st1{fill:#646e78;}
	.st2{opacity:0.5;fill:#3a3347;}
	.st3{opacity:0.5;fill:#646e78;}
	.st4{fill:#92140C;}
	.st5{fill:#090B2E;}
	.st6{fill:#4BB3FD;}
	.st7{fill:#ebe6ef;}
	.st8{opacity:0.5;fill:#92140C;}
	.st9{fill:#FFC738;}
	.st10{fill:none;stroke:#090B2E;stroke-width:7;stroke-linecap:round;stroke-linejoin:round;stroke-miterlimit:10;}
	.st11{fill:#B26836;}
	.st12{opacity:0.5;fill:#B26836;}
	.st13{fill:#F9C9C0;}
	.st14{opacity:0.5;fill:#F9C9C0;}
	.st15{opacity:0.5;fill:#ebe6ef;}
	.st16{opacity:0.5;}
	.st17{fill:#2CA58D;}
	.st18{opacity:0.5;fill:#4BB3FD;}
	.st19{opacity:0.5;fill:#2CA58D;}
	.st20{opacity:0.5;fill:#FFC738;}
	.st21{fill:#F24C00;}
	.st22{opacity:0.5;fill:#F24C00;}
	.st23{fill:#F28BA8;}
</style>
<path class="st1" d="M374.97,184.75v118.99c0,2.18-2.25,3.63-4.23,2.74l-78.02-35.16v24.75c0,6.6-5.4,12-12,12h-38.36v37.03
	c0,1.66-1.34,3-3,3h-85.03c-1.66,0-3-1.34-3-3v-37.03h-38.35c-6.6,0-12-5.4-12-12v-67.95H55.03v-29.45h45.95v-6.24
	c0-6.6,5.4-12,12-12h167.74c6.6,0,12,5.4,12,12v24.75l78.02-35.16C372.72,181.12,374.97,182.58,374.97,184.75z"/>
<rect x="55.03" y="198.67" class="st3" width="12.22" height="29.45"/>
<path class="st3" d="M292.36,298.91c-1.27,5.25-6.03,9.18-11.66,9.18H112.96c-6.6,0-12-5.4-12-12V192.45c0-6.59,5.38-11.98,11.96-12
	c-0.22,0.9-0.34,1.85-0.34,2.82v103.64c0,6.6,5.4,12,12,12H292.36z"/>
<path class="st0" d="M242.1,308.07v37.03c0,1.66-1.34,3-3,3h-85.03c-1.66,0-3-1.34-3-3v-37.03H242.1z"/>
<path class="st2" d="M161.93,308.07v40.03h-7.86c-1.66,0-3-1.34-3-3v-37.03H161.93z"/>
<circle class="st0" cx="150.19" cy="131.17" r="49.27"/>
<circle class="st0" cx="248.72" cy="131.17" r="49.27"/>
<circle class="st1" cx="150.19" cy="131.17" r="15.99"/>
<circle class="st1" cx="248.72" cy="131.17" r="15.99"/>
<path class="st0" d="M134.2,131.16c0-5.98,3.28-11.19,8.14-13.93c-1.1,2.17-1.72,4.61-1.72,7.21c0,8.83,7.16,15.99,15.99,15.99
	c2.85,0,5.53-0.75,7.85-2.06c-2.63,5.21-8.03,8.78-14.27,8.78C141.36,147.15,134.2,139.99,134.2,131.16z"/>
<path class="st2" d="M188.89,161.65c-9.02,11.44-23,18.78-38.7,18.78c-27.21,0-49.27-22.06-49.27-49.27
	c0-14.86,6.58-28.18,16.99-37.21c-6.62,8.39-10.57,18.98-10.57,30.49c0,27.21,22.06,49.26,49.27,49.26
	C168.96,173.7,180.25,169.16,188.89,161.65z"/>
<path class="st0" d="M232.73,131.16c0-5.98,3.28-11.19,8.14-13.93c-1.1,2.17-1.72,4.61-1.72,7.21c0,8.83,7.16,15.99,15.99,15.99
	c2.86,0,5.53-0.75,7.85-2.06c-2.63,5.21-8.03,8.78-14.27,8.78C239.89,147.15,232.73,139.99,232.73,131.16z"/>
<path class="st2" d="M287.38,161.69c-9.01,11.42-22.98,18.74-38.66,18.74c-22.42,0-41.34-14.98-47.3-35.48
	c-1.28-4.38-1.96-9.01-1.96-13.79c0-7.32,1.6-14.27,4.46-20.51c2.95-6.45,7.26-12.14,12.55-16.74c-6.63,8.4-10.59,19-10.59,30.53
	c0,27.21,22.05,49.26,49.26,49.26C267.46,173.7,278.74,169.17,287.38,161.69z"/>
<path class="st1" d="M164.46,138.37c-2.63,5.21-8.03,8.78-14.27,8.78c-8.83,0-15.99-7.16-15.99-15.99c0-5.98,3.28-11.19,8.14-13.93
	c-1.1,2.17-1.72,4.61-1.72,7.21c0,8.83,7.16,15.99,15.99,15.99C159.46,140.43,162.14,139.68,164.46,138.37z"/>
<path class="st1" d="M262.99,138.37c-2.63,5.21-8.03,8.78-14.27,8.78c-8.83,0-15.99-7.16-15.99-15.99c0-5.98,3.28-11.19,8.14-13.93
	c-1.1,2.17-1.72,4.61-1.72,7.21c0,8.83,7.16,15.99,15.99,15.99C258,140.43,260.67,139.68,262.99,138.37z"/>
<path class="st3" d="M156.61,140.43c2.85,0,5.53-0.75,7.85-2.06c-2.63,5.21-8.03,8.78-14.27,8.78c-8.83,0-15.99-7.16-15.99-15.99
	c0-5.98,3.28-11.19,8.14-13.93c-1.1,2.17-1.72,4.61-1.72,7.21C140.62,133.27,147.78,140.43,156.61,140.43z"/>
<path class="st3" d="M262.99,138.37c-2.63,5.21-8.03,8.78-14.27,8.78c-8.83,0-15.99-7.16-15.99-15.99c0-5.98,3.28-11.19,8.14-13.93
	c-1.1,2.17-1.72,4.61-1.72,7.21c0,8.83,7.16,15.99,15.99,15.99C258,140.43,260.67,139.68,262.99,138.37z"/>
<path class="st7" d="M213.23,262.81h49.48c1.66,0,3-1.34,3-3v-49.48c0-1.66-1.34-3-3-3h-49.48c-1.66,0-3,1.34-3,3v49.48
	C210.23,261.47,211.57,262.81,213.23,262.81z"/>
<path class="st3" d="M374.97,184.75v119c0,2.18-2.25,3.63-4.23,2.74l-78.03-35.16v-54.14l78.03-35.16
	C372.72,181.12,374.97,182.58,374.97,184.75z"/>
<path class="st1" d="M54.88,243.83c-1.93,0-3.5-1.57-3.5-3.5v-50.67c0-1.93,1.57-3.5,3.5-3.5s3.5,1.57,3.5,3.5v50.67
	C58.38,242.27,56.81,243.83,54.88,243.83z"/>
<path class="st0" d="M135.01,268.81h-0.14c-3.31,0-6-2.69-6-6s2.69-6,6-6h0.14c3.31,0,6,2.69,6,6S138.33,268.81,135.01,268.81z"/>
</svg>
